<?xml version="1.0" encoding="UTF-8" standalone="no"?>
<svg width="617px" height="262px" viewBox="0 0 617 262" version="1.1" xmlns="http://www.w3.org/2000/svg" xmlns:xlink="http://www.w3.org/1999/xlink">
    <!-- Generator: Sketch 49.1 (51147) - http://www.bohemiancoding.com/sketch -->
    <title>logo_sharestudio_h_col@2x</title>
    <desc>Created with Sketch.</desc>
    <defs>
        <linearGradient x1="0%" y1="49.9978828%" x2="100%" y2="49.9978828%" id="linearGradient-1">
            <stop stop-color="#FD8762" offset="0%"></stop>
            <stop stop-color="#FD6062" offset="100%"></stop>
        </linearGradient>
        <linearGradient x1="4789%" y1="18249%" x2="13890%" y2="18249%" id="linearGradient-2">
            <stop stop-color="#FD8762" offset="0%"></stop>
            <stop stop-color="#FD6062" offset="100%"></stop>
        </linearGradient>
    </defs>
    <g id="Style-guide" stroke="none" stroke-width="1" fill="none" fill-rule="evenodd">
        <g id="Logo" transform="translate(-147.000000, -155.000000)" fill-rule="nonzero">
            <g id="logo_sharestudio_h_col" transform="translate(147.000000, 155.000000)">
                <path d="M297.11,66.21 C293.939499,65.1617652 290.628776,64.5987401 287.29,64.54 C284.953847,64.4232174 282.628414,64.9269464 280.55,66 C278.917565,66.9211533 277.948712,68.6883405 278.05,70.56 C278.037799,72.6826611 279.270327,74.6155783 281.2,75.5 C284.379326,77.0651175 287.714301,78.2918518 291.15,79.16 C295.190186,80.3354204 299.148722,81.775192 303,83.47 C306.11659,84.9207982 308.854807,87.0737215 311,89.76 C313.266667,92.5466667 314.4,96.2133333 314.4,100.76 C314.4,107.426667 311.833333,112.56 306.7,116.16 C301.566667,119.76 295.106667,121.556667 287.32,121.55 C282.04273,121.555289 276.799007,120.711161 271.79,119.05 C267.072581,117.569317 262.704517,115.147151 258.95,111.93 L264.73,100.25 C267.97209,103.00018 271.704057,105.11383 275.73,106.48 C279.637336,107.912206 283.758843,108.672944 287.92,108.73 C290.477629,108.851674 293.022401,108.299962 295.3,107.13 C297.066021,106.188345 298.138167,104.319859 298.06,102.32 C298.132764,100.051056 296.879624,97.9468729 294.85,96.93 C291.522498,95.2597401 288.039145,93.9199889 284.45,92.93 C280.596739,91.8552341 276.821303,90.5187968 273.15,88.93 C270.182517,87.5651911 267.586338,85.5074536 265.58,82.93 C263.44,80.2633333 262.37,76.7333333 262.37,72.34 C262.37,65.58 264.83,60.4233333 269.75,56.87 C274.67,53.3166667 280.853333,51.5433333 288.3,51.55 C292.838589,51.5486342 297.354135,52.1951553 301.71,53.47 C305.883603,54.6434163 309.848126,56.4620361 313.46,58.86 L307.46,70.92 C304.202511,68.9573879 300.729573,67.3769496 297.11,66.21 Z" id="Shape" fill="#424242"></path>
                <path d="M392.55,58.7 C397.083333,63.4466667 399.35,69.8866667 399.35,78.02 L399.35,120.89 L382.54,120.89 L382.54,82.89 C382.54,78.0966667 381.17,74.31 378.43,71.53 C375.69,68.75 371.966667,67.36 367.26,67.36 C361.7,67.4466667 357.28,69.3266667 354,73 C350.72,76.6733333 349.093333,81.38 349.12,87.12 L349.12,120.88 L332.48,120.88 L332.48,25.64 L349.17,25.64 L349.17,65.31 C353.876667,56.3233333 362.133333,51.7466667 373.94,51.58 C381.806667,51.5733333 388.01,53.9466667 392.55,58.7 Z" id="Shape" fill="#424242"></path>
                <path d="M461.86,120.89 L461.86,112.55 C459.419641,115.577338 456.23606,117.920233 452.62,119.35 C448.479248,120.962094 444.062649,121.74689 439.62,121.66 C435.25434,121.750145 430.929475,120.804295 427,118.9 C423.52438,117.209032 420.605923,114.557781 418.59,111.26 C416.594226,107.973364 415.555258,104.194981 415.59,100.35 C415.59,93.9366667 417.856667,88.91 422.39,85.27 C426.923333,81.63 433.34,79.77 441.64,79.69 L461.64,79.69 L461.64,77.89 C461.64,73.89 460.306667,70.7666667 457.64,68.52 C454.973333,66.2733333 451.16,65.16 446.2,65.18 C439.693333,65.18 432.89,67.32 425.79,71.6 L419.79,60.05 C424.447002,57.3761258 429.374589,55.203965 434.49,53.57 C439.522268,52.1560416 444.733595,51.4823082 449.96,51.57 C458.86,51.57 465.77,53.71 470.69,57.99 C475.61,62.27 478.113333,68.27 478.2,75.99 L478.33,120.92 L461.86,120.89 Z M456,105.42 C459.42,103.153333 461.346667,100.35 461.78,97.01 L461.78,90.85 L444.4,90.85 C439.953333,90.85 436.68,91.5166667 434.58,92.85 C432.48,94.1833333 431.433333,96.3433333 431.44,99.33 C431.341456,102.033649 432.560495,104.617119 434.71,106.26 C436.89,107.973333 439.863333,108.83 443.63,108.83 C448.002131,108.960662 452.312386,107.772468 456,105.42 Z" id="Shape" fill="#424242"></path>
                <path d="M526.36,55.23 C530.600469,52.8057124 535.405532,51.5432191 540.29,51.5695826 L540.29,67.75 C533.19,67.3233333 527.523333,68.97 523.29,72.69 C519.056667,76.41 516.936667,81.4366667 516.93,87.77 L516.93,120.89 L500.24,120.89 L500.24,52.21 L516.92,52.21 L516.92,65.44 C519.030487,61.2073645 522.305492,57.6652254 526.36,55.23 Z" id="Shape" fill="#424242"></path>
                <path d="M608.51,61.07 C614.03,67.3166667 616.79,76.0866667 616.79,87.38 C616.79,89.6066667 616.746667,91.2733333 616.66,92.38 L566,92.38 C567.722641,101.768996 576.103142,108.451208 585.64,108.04 C589.099288,108.047401 592.525589,107.36758 595.72,106.04 C598.889879,104.742159 601.754207,102.797414 604.13,100.33 L613.13,109.7 C609.655432,113.502139 605.378895,116.484101 600.61,118.43 C595.41634,120.53641 589.854074,121.583585 584.25,121.51 C577.797638,121.646994 571.415749,120.146992 565.7,117.15 C560.465326,114.355594 556.159463,110.094909 553.31,104.89 C550.324337,99.3103637 548.822968,93.0569573 548.95,86.73 C548.829657,80.3729613 550.355753,74.0928844 553.38,68.5 C556.232541,63.2932978 560.504894,59.003606 565.7,56.13 C571.249585,53.1151765 577.485356,51.5889629 583.8,51.7 C594.753333,51.7 602.99,54.8233333 608.51,61.07 Z M601.51,81.22 C601.336667,76.1733333 599.67,72.15 596.51,69.15 C593.35,66.15 589.156667,64.6533333 583.93,64.66 C579.428251,64.5211773 575.04323,66.1056507 571.67,69.09 C568.376667,72.0433333 566.343333,76.0866667 565.57,81.22 L601.51,81.22 Z" id="Shape" fill="#424242"></path>
                <path d="M284.76,165 C279.9,165 275.963333,165.943333 272.95,167.83 C269.994928,169.606951 268.257731,172.866117 268.43,176.31 C268.350609,178.615619 269.159628,180.86369 270.69,182.59 C272.253421,184.305932 274.189789,185.640178 276.35,186.49 C278.61,187.416667 281.666667,188.463333 285.52,189.63 C289.28418,190.738399 292.977634,192.074187 296.58,193.63 C299.324009,194.875424 301.751119,196.724814 303.68,199.04 C305.764547,201.679055 306.829464,204.980297 306.68,208.34 C306.68,214.12 304.5,218.5 300.14,221.48 C295.78,224.46 290.36,225.966667 283.88,226 C279.370752,226.018569 274.896469,225.208453 270.68,223.61 C266.669766,222.130675 262.994778,219.866529 259.87,216.95 L262.26,212.95 C265.144919,215.655247 268.546157,217.75041 272.26,219.11 C276.058518,220.534016 280.083341,221.259026 284.14,221.25 C289.166667,221.25 293.336667,220.203333 296.65,218.11 C299.875566,216.204805 301.79565,212.683372 301.65,208.94 C301.743643,206.523333 300.91011,204.162252 299.32,202.34 C297.69302,200.571695 295.700075,199.179364 293.48,198.26 C290.382826,196.998571 287.217947,195.910227 284,195 C280.322437,193.876565 276.713055,192.540994 273.19,191 C270.514434,189.789517 268.150921,187.983533 266.28,185.72 C264.265952,183.165025 263.239958,179.969888 263.39,176.72 C263.39,171.273333 265.423333,167.166667 269.49,164.4 C273.556667,161.633333 278.69,160.25 284.89,160.25 C291.493978,160.177282 297.98499,161.965516 303.62,165.41 L301.36,169.68 C296.399471,166.539007 290.630694,164.912629 284.76,165 Z" id="Shape" fill="#424242"></path>
                <path d="M356,221.34 C351.913624,224.275349 347.030521,225.897237 342,225.99 C337.333333,225.99 333.73,224.46 331.19,221.4 C328.65,218.34 327.393333,213.796667 327.42,207.77 L327.42,166.55 L318,166.55 L318,162 L327.55,162 L327.55,145.81 L332.55,145.81 L332.55,162 L352.12,162 L352.12,166.53 L332.54,166.53 L332.54,207.13 C332.54,216.263333 335.933333,220.83 342.72,220.83 C346.775756,220.758045 350.712222,219.445889 354,217.07 L356,221.34 Z" id="Shape" fill="#424242"></path>
                <path d="M424.67,160.39 L424.67,225.87 L419.52,225.87 L419.52,208.4 C417.73199,213.691755 414.266745,218.255908 409.65,221.4 C405.163333,224.38 399.696667,225.91 393.25,225.99 C385.376667,225.99 379.24,223.726667 374.84,219.2 C370.44,214.673333 368.24,208.39 368.24,200.35 L368.24,160.35 L373.39,160.35 L373.39,199.35 C373.39,206.056667 375.233333,211.293333 378.92,215.06 C382.606667,218.826667 387.76,220.713333 394.38,220.72 C402.253333,220.553333 408.41,217.956667 412.85,212.93 C417.29,207.903333 419.51,201.073333 419.51,192.44 L419.51,160.44 L424.67,160.39 Z" id="Shape" fill="#424242"></path>
                <path d="M505.5,132.61 L505.5,225.87 L500.22,225.87 L500.22,208.78 C497.865716,214.042557 494.020538,218.499626 489.16,221.6 C484.116858,224.751361 478.265642,226.367047 472.32,226.25 C466.550089,226.346773 460.861807,224.878049 455.86,222 C451.05519,219.211608 447.118985,215.143849 444.49,210.25 C441.707069,205.021872 440.299615,199.171819 440.4,193.25 C440.300947,187.299645 441.707873,181.420828 444.49,176.16 C447.096258,171.253857 451.011119,167.165926 455.8,164.35 C460.767891,161.432052 466.438997,159.927826 472.2,160 C478.198135,159.865073 484.105603,161.48094 489.2,164.65 C494.059764,167.751269 497.904718,172.208078 500.26,177.47 L500.26,132.61 L505.5,132.61 Z M487,217.7 C491.1103,215.31098 494.480892,211.83311 496.74,207.65 C501.431649,198.58437 501.431649,187.80563 496.74,178.74 C494.480683,174.554447 491.110358,171.073392 487,168.68 C478.29675,163.829936 467.70325,163.829936 459,168.68 C454.88346,171.080667 451.49623,174.554306 449.2,178.73 C446.775257,183.155294 445.54164,188.13456 445.62,193.18 C445.541315,198.218093 446.75308,203.192525 449.14,207.63 C451.398686,211.81342 454.769378,215.291393 458.88,217.68 C467.634162,222.539518 478.275838,222.539518 487.03,217.68 L487,217.7 Z" id="Shape" fill="#424242"></path>
                <path d="M534.6,138.33 C535.462723,139.168817 535.940425,140.326884 535.92,141.53 C535.957382,142.77442 535.479828,143.979158 534.6,144.86 C533.797699,145.703806 532.684343,146.181502 531.52,146.181502 C530.355657,146.181502 529.242301,145.703806 528.44,144.86 C527.560172,143.979158 527.082618,142.77442 527.12,141.53 C527.099575,140.326884 527.577277,139.168817 528.44,138.33 C529.242301,137.486194 530.355657,137.008498 531.52,137.008498 C532.684343,137.008498 533.797699,137.486194 534.6,138.33 Z M528.88,160.39 L534,160.39 L534,225.87 L528.84,225.87 L528.88,160.39 Z" id="Shape" fill="#424242"></path>
                <path d="M601.14,164.47 C605.986871,167.22008 609.969707,171.268719 612.64,176.16 C618.171815,186.793586 618.171815,199.456414 612.64,210.09 C609.970137,214.9816 605.987197,219.030345 601.14,221.78 C590.791888,227.391943 578.308112,227.391943 567.96,221.78 C563.104865,219.020676 559.10486,214.975687 556.4,210.09 C550.785467,199.476795 550.785467,186.773205 556.4,176.16 C559.116184,171.269315 563.130453,167.2239 568,164.47 C578.347181,158.854385 590.832819,158.854385 601.18,164.47 L601.14,164.47 Z M570.54,168.81 C566.456667,171.133726 563.103925,174.552275 560.86,178.68 C558.469179,183.094329 557.256829,188.050498 557.34,193.07 C557.25152,198.150574 558.463207,203.169437 560.86,207.65 C563.088366,211.80465 566.443508,215.246443 570.54,217.58 C574.811566,219.97503 579.643638,221.189951 584.54,221.1 C589.434441,221.1733 594.26225,219.959451 598.54,217.58 C602.654945,215.270399 606.016052,211.822487 608.22,207.65 C610.578284,203.157251 611.768148,198.143315 611.68,193.07 C611.762922,188.057829 610.572426,183.106604 608.22,178.68 C606.000396,174.534348 602.64173,171.109758 598.54,168.81 C594.26121,166.433179 589.434114,165.21951 584.54,165.29 C579.643749,165.201013 574.811925,166.415871 570.54,168.81 Z" id="Shape" fill="#424242"></path>
                <path d="M186.79,225.85 L119.56,225.85 L119.56,210.61 L171.56,210.61 L171.56,94.74 L93.39,17.68 L15.24,94.74 L15.24,210.61 L67.24,210.61 L67.24,225.85 L0,225.85 L0,88.36 L86.93,2.65 C90.5156058,-0.883915162 96.2743942,-0.883915162 99.86,2.65 L186.79,88.36 L186.79,225.85 Z" id="Shape" fill="url(#linearGradient-1)"></path>
                <path d="M138.9,145.56 L99.5,106.16 C97.8813446,104.539928 95.6851263,103.629662 93.395,103.629662 C91.1048737,103.629662 88.9086554,104.539928 87.29,106.16 L47.89,145.56 L58.67,156.34 L85.78,129.23 L85.78,261.35 L101,261.35 L101,129.23 L128.11,156.34 L138.9,145.56 Z" id="Shape" fill="url(#linearGradient-2)"></path>
            </g>
        </g>
    </g>
</svg>