<?xml version="1.0" encoding="UTF-8" standalone="no"?>
<svg width="588px" height="374px" viewBox="0 0 588 374" version="1.1" xmlns="http://www.w3.org/2000/svg" xmlns:xlink="http://www.w3.org/1999/xlink">
    <!-- Generator: Sketch 49.1 (51147) - http://www.bohemiancoding.com/sketch -->
    <title>hero</title>
    <desc>Created with Sketch.</desc>
    <defs>
        <path d="M62.5749156,0 L166.892381,0 L166.892381,20.4883481 L66.3074619,20.4883481 L15.648521,69.2520868 C12.0956378,72.672053 6.44302647,72.5643025 3.02306022,69.0114193 C2.90572321,68.889522 2.79187457,68.7643142 2.6816522,68.6359477 L2.6816522,68.6359477 C-0.775802381,64.6093479 -0.494969236,58.5855402 3.3221188,54.8980835 L58.4061829,1.68471695 C59.5248616,0.604029424 61.0194968,6.50297473e-15 62.5749156,6.21724894e-15 Z" id="path-1"></path>
        <rect id="path-3" x="0" y="0" width="546" height="21" rx="10.5"></rect>
    </defs>
    <g id="UI" stroke="none" stroke-width="1" fill="none" fill-rule="evenodd">
        <g id="0000-Home" transform="translate(-693.000000, -241.000000)">
            <g id="hero" transform="translate(693.000000, 241.000000)">
                <path d="M546,96.2537845 C546,76.8449466 527.828501,61.1246661 505.393298,61.1246661 L367.765881,61.1246661 C365.227962,61.1246661 363.197627,59.3682102 363.197627,57.1726402 C363.197627,54.9770703 365.227962,53.2206144 367.765881,53.2206144 L377.7822,53.2206144 C394.769337,53.2206144 408.541777,41.3059884 408.541777,26.6103072 C408.541777,11.914626 394.769337,0 377.7822,0 L164.393981,0 C147.406844,0 133.634404,11.914626 133.634404,26.6103072 C133.634404,41.3059884 147.406844,53.2206144 164.393981,53.2206144 L236.978461,53.2206144 C239.51638,53.2206144 241.546715,54.9770703 241.546715,57.1726402 C241.546715,59.3682102 239.51638,61.1246661 236.978461,61.1246661 L31.8085833,61.1246661 C14.2461846,61.1246661 0,73.4491318 0,88.6424755 C0,103.835819 14.2461846,116.160285 31.8085833,116.160285 L189.197908,116.160285 C196.202564,116.160285 201.853664,121.049087 201.853664,127.10886 C201.853664,133.168633 196.202564,138.057435 189.197908,138.057435 L102.028855,138.057435 C90.3882667,138.057435 80.9472085,146.224955 80.9472085,156.295303 C80.9472085,166.36565 90.3882667,174.53317 102.028855,174.53317 L115.733617,174.53317 C127.001976,174.53317 136.104645,182.437222 136.104645,192.156278 C136.104645,201.904608 126.968137,209.779386 115.733617,209.779386 L64.1585892,209.779386 C47.1714522,209.779386 33.3990124,221.694012 33.3990124,236.389693 C33.3990124,251.085374 47.1714522,263 64.1585892,263 C262.71953,264.333333 372,264.333333 392,263 C392,251.583037 422.470205,201.875334 435.667383,201.875334 L438.476014,201.875334 C454.008077,201.875334 466.596155,190.985307 466.596155,177.548419 C466.596155,164.111532 454.008077,153.221505 438.476014,153.221505 L433.56937,153.221505 C426.564714,153.221505 403.635134,148.332703 403.635134,142.27293 C403.635134,136.213157 409.286233,131.324354 416.290889,131.324354 L505.427137,131.324354 C527.794662,131.353629 546,115.633348 546,96.2537845 Z" id="Shape" fill-opacity="0.518965127" fill="#49CCFF" fill-rule="nonzero" opacity="0.200000003"></path>
                <g id="Group-28" transform="translate(107.000000, 75.000000)">
                    <g id="Group-24">
                        <g id="Group">
                            <g>
                                <rect id="Rectangle-4" fill="#8AD8FF" x="304.44546" y="233.510806" width="82.4135799" height="9.14007729" rx="4.57003864"></rect>
                                <rect id="Rectangle-8" fill="#47C0FF" x="132.292648" y="127.248324" width="126.367489" height="115.164974"></rect>
                                <circle id="Oval-5-Copy" fill="#3497CB" cx="151" cy="142" r="5"></circle>
                                <circle id="Oval-5-Copy-2" fill="#3497CB" cx="164.5" cy="142.5" r="3.5"></circle>
                                <rect id="Rectangle-2" fill="#3497CB" x="175" y="139" width="41" height="6" rx="3"></rect>
                                <rect id="Rectangle-16" fill="#71CEFF" x="1.43092068" y="152.84054" width="131.861728" height="89.5727574"></rect>
                                <rect id="Rectangle-17" fill="#FFFFFF" x="24.6555184" y="171.319149" width="51.2795608" height="9.14007729" rx="4.57003864"></rect>
                                <path d="M71.5700386,151 L118.279561,151 L118.279561,160.140077 L71.5700386,160.140077 C69.046076,160.140077 67,158.094001 67,155.570039 L67,155.570039 C67,153.046076 69.046076,151 71.5700386,151 Z" id="Rectangle-17-Copy" fill="#BBE8FF" transform="translate(92.639780, 155.570039) rotate(-270.000000) translate(-92.639780, -155.570039) "></path>
                                <path d="M87.5700386,157 L121.459671,157 L121.459671,166.140077 L87.5700386,166.140077 C85.046076,166.140077 83,164.094001 83,161.570039 L83,161.570039 C83,159.046076 85.046076,157 87.5700386,157 Z" id="Rectangle-17-Copy-2" fill="#3FB5F0" transform="translate(102.229835, 161.570039) rotate(-270.000000) translate(-102.229835, -161.570039) "></path>
                                <path d="M102.570039,163 L125.471193,163 L125.471193,172.140077 L102.570039,172.140077 C100.046076,172.140077 98,170.094001 98,167.570039 L98,167.570039 C98,165.046076 100.046076,163 102.570039,163 Z" id="Rectangle-17-Copy-3" fill="#3497CB" transform="translate(111.735597, 167.570039) rotate(-270.000000) translate(-111.735597, -167.570039) "></path>
                                <rect id="Rectangle-18" fill="#4DC2FF" x="0.430920679" y="180.260772" width="73.2565154" height="62.1525255"></rect>
                                <circle id="Oval-5" fill="#3BAAE4" cx="12" cy="215" r="5"></circle>
                                <rect id="Rectangle-3" fill="#71CEFF" x="207.380577" y="172.94871" width="82.4135799" height="69.4645874"></rect>
                                <path d="M363.934372,17.2808093 L374.632437,25.7613454 C376.90557,27.5632958 380.222498,27.1981035 382.041004,24.9456655 C383.85951,22.6932275 383.490963,19.4064963 381.21783,17.6045459 L368.040615,7.15874573 C366.515497,5.94975921 364.440738,5.6755351 362.649144,6.44614653 L278.314966,42.7204753 C276.388976,43.5488935 275.142854,45.4309747 275.142854,47.5114742 L275.142854,238.433299 C275.142854,241.317827 277.50271,243.656199 280.41374,243.656199 C283.32477,243.656199 285.684626,241.317827 285.684626,238.433299 L285.684626,50.9380651 L363.934372,17.2808093 Z" id="Path-3" fill="#8AD8FF" fill-rule="nonzero" transform="translate(329.169534, 124.835194) scale(-1, 1) translate(-329.169534, -124.835194) "></path>
                                <g id="Group-6" transform="translate(276.973423, 26.896423) rotate(87.000000) translate(-276.973423, -26.896423) translate(251.473423, 0.396423)">
                                    <ellipse id="Oval" fill="#FFCA93" cx="32.8189189" cy="32.6230451" rx="8.20472973" ry="8.15576127"></ellipse>
                                    <path d="M24.5476803,9.06891799 L24.5476803,5.01589714 C24.5476803,2.1838052 26.8435444,-0.112058941 29.6756364,-0.112058941 C32.5077283,-0.112058941 34.8035925,2.1838052 34.8035925,5.01589714 L34.8035925,47.7724332 C34.8035925,50.6045252 32.5077283,52.9003893 29.6756364,52.9003893 C26.8435444,52.9003893 24.5476803,50.6045252 24.5476803,47.7724332 L24.5476803,41.6804721 C23.6906342,42.3242244 22.6253182,42.7056877 21.4709066,42.7056877 C18.6388147,42.7056877 16.3429506,40.4098236 16.3429506,37.5777317 L16.3429506,13.1716584 C16.3429506,10.3395665 18.6388147,8.04370233 21.4709066,8.04370233 C22.6253182,8.04370233 23.6906342,8.42516567 24.5476803,9.06891799 Z" id="Combined-Shape" fill="#3ABBFF" transform="translate(25.573272, 26.394165) rotate(-317.000000) translate(-25.573272, -26.394165) "></path>
                                </g>
                                <g id="Group-7" transform="translate(131.884474, 92.516030)">
                                    <g id="Path-4" transform="translate(0.000000, 61.515110)">
                                        <mask id="mask-2" fill="white">
                                            <use xlink:href="#path-1"></use>
                                        </mask>
                                        <use id="Mask" fill="#BBE8FF" xlink:href="#path-1"></use>
                                        <polygon fill="#000000" style="mix-blend-mode: soft-light;" opacity="0.66870471" mask="url(#mask-2)" points="6.78654315 71.7091991 64.2550165 16.3906741 201.768863 16.3906741 201.768863 22.5371769 62.202571 32.7813482 6.78654315 75.8068677"></polygon>
                                    </g>
                                    <rect id="Rectangle-5" fill="#92D6F7" transform="translate(193.331439, 42.848360) rotate(45.000000) translate(-193.331439, -42.848360) " x="182.850418" y="-7.21496391" width="20.9620432" height="100.126649" rx="10.4810216"></rect>
                                    <circle id="Oval-5-Copy-3" fill="#3497CB" cx="166.5" cy="69.5" r="3.5"></circle>
                                </g>
                                <g id="Group-9" transform="translate(137.000000, 50.000000)">
                                    <rect id="Rectangle-9" fill="#3ABBFF" x="39.2465577" y="68.2802309" width="40.2910835" height="9.14007729"></rect>
                                    <rect id="Rectangle-9-Copy" fill="#8AD8FF" x="0.786887108" y="0.643659025" width="115.379012" height="69.4645874" rx="3"></rect>
                                    <rect id="Rectangle-9-Copy" fill="#0EA3EC" x="4.44971288" y="4.29968994" width="108.05336" height="62.1525255" rx="3"></rect>
                                    <path d="M56.4700351,50.9723974 C56.3292264,53.9533272 56.1735099,55.5207924 55.8192653,56.7941385 C55.3233699,58.5766539 54.3747032,59.5903985 52.8452781,59.5903985 C48.450852,59.5903985 46.2504597,49.7856083 46.2400574,38.7109269 C45.3951906,38.3572416 44.2730682,37.6693474 43.1341214,36.5194509 C42.2216613,35.5982185 41.4664649,34.5133165 40.9246153,33.2551346 C39.4576788,29.8536058 39.7453188,25.6920339 41.7229037,20.9094273 C43.8691308,15.7142449 47.4173685,13 52.1707507,13 C55.2350088,13 58.1742882,14.0438471 60.5003039,15.3718559 C62.8258273,14.0439251 65.7668097,13 68.8303902,13 C73.5841882,13 77.1320009,15.7141381 79.2776272,20.9091979 C81.2480604,25.6752535 81.5401253,29.8268257 80.0904032,33.2243337 C79.3393899,34.9788173 78.1820508,36.3808968 76.7908744,37.4644209 C75.9884689,38.0893779 75.1758529,38.5456314 74.7610514,38.7118847 C74.7461942,49.7982476 72.5498107,59.5903985 68.1563782,59.5903985 C66.6267202,59.5903985 65.6780078,58.5767469 65.1821272,56.7941167 C64.8279386,55.5208515 64.6723019,53.954332 64.5310749,50.9702088 C64.2122592,44.1173457 63.4169021,41.7042032 60.4478095,41.4907089 C57.5703089,41.703759 56.7885098,44.1261325 56.4700351,50.9723974 Z" id="Path-Copy-2" fill="#FFFFFF" fill-rule="nonzero"></path>
                                </g>
                            </g>
                        </g>
                    </g>
                </g>
                <g id="Rectangle-10" transform="translate(28.000000, 317.000000)">
                    <mask id="mask-4" fill="white">
                        <use xlink:href="#path-3"></use>
                    </mask>
                    <use id="Mask" fill="#3ABBFF" xlink:href="#path-3"></use>
                    <rect fill="#FFFFFF" opacity="0.358072917" style="mix-blend-mode: soft-light;" mask="url(#mask-4)" x="-9" y="11" width="558" height="15"></rect>
                </g>
                <path d="M540.773619,374 L62.2001932,374 C52.1442591,374 44,362.349636 44,347.96462 L44,338 L559,338 L559,347.927159 C559,362.312175 550.829554,374 540.773619,374 Z" id="Shape" fill="#3ABBFF" fill-rule="nonzero" opacity="0.153759058"></path>
                <g id="Group-3" transform="translate(503.000000, 96.000000)">
                    <rect id="Rectangle-7" fill="#47C0FF" x="0" y="171" width="78" height="10" rx="5"></rect>
                    <polygon id="Rectangle-7-Copy" fill="#47C0FF" points="3 181 75 181 57 222 22 222"></polygon>
                    <g id="Group-8" transform="translate(18.000000, 0.000000)" fill-rule="nonzero">
                        <rect id="Rectangle-path" fill="#47C0FF" x="16" y="93" width="9" height="78"></rect>
                        <path d="M35.9158879,133 L34.5700935,133 C15.4766355,133 0,117.511392 0,98.4031646 L0,17.3405063 C0,7.82848101 7.73831776,0 17.3271028,0 L18.6728972,0 C28.1775701,0 36,7.7443038 36,17.3405063 L36,133 L35.9158879,133 Z" id="Shape" fill="#8AD8FF"></path>
                        <ellipse id="Oval" fill="#8AD8FF" cx="33.5" cy="99" rx="33.5" ry="34"></ellipse>
                        <circle id="Oval" fill="#8AD8FF" cx="33" cy="51" r="23"></circle>
                        <path d="M17.1469194,1.26788036 C17.1469194,1.26788036 18,0 17.9146919,0 L18,0 C7.93364929,0 0,9.38231469 0,19.3563069 L0,98.7256177 C0,112.16515 6.82464455,123.829649 17.0616114,130 L17.0616114,1.26788036 L17.1469194,1.26788036 Z" id="Shape" fill="#BBE8FF"></path>
                    </g>
                </g>
                <path d="M304.912881,75.1649946 C304.677313,75.4611131 304.408893,75.7295339 304.112774,75.965102 C301.951748,77.6842413 298.806252,77.326021 297.087116,75.1649918 C280.362372,54.1413238 272,38.6941696 272,28.8235294 C272,12.9047337 284.983742,0 301,0 C317.016258,0 330,12.9047337 330,28.8235294 C330,38.6941701 321.637627,54.1413252 304.912881,75.1649946 Z M301,43 C308.731986,43 315,36.7319865 315,29 C315,21.2680135 308.731986,15 301,15 C293.268014,15 287,21.2680135 287,29 C287,36.7319865 293.268014,43 301,43 Z" id="Combined-Shape" fill="#0EA3EC"></path>
                <circle id="Oval-4" fill-opacity="0.550073596" fill="#FFFFFF" cx="370" cy="121" r="24"></circle>
                <polygon id="Path-2" fill="#3FA8DF" opacity="0.5" points="542 277 542 317 523.5 317 505 277"></polygon>
            </g>
        </g>
    </g>
</svg>